<?xml version="1.0" encoding="UTF-8" standalone="no"?>
<svg width="12px" height="12px" viewBox="0 0 12 12" version="1.1" xmlns="http://www.w3.org/2000/svg" xmlns:xlink="http://www.w3.org/1999/xlink">
    <!-- Generator: sketchtool 41 (35326) - http://www.bohemiancoding.com/sketch -->
    <title>75FE92AB-779D-4CC7-B3EB-1321404540A0</title>
    <desc>Created with sketchtool.</desc>
    <defs></defs>
    <g id="popup" stroke="none" stroke-width="1" fill="none" fill-rule="evenodd">
        <g id="Assets" transform="translate(-13.000000, -49.000000)" fill="#FFFFFF">
            <g id="NotebookWhite" transform="translate(13.000000, 49.000000)">
                <path d="M1.992,12 C1.432,12 1,11.552 1,10.992 L1,0 L2.744,0 L2.744,8.496 L3.496,8.496 L3.496,0 L9.992,0 C10.552,0 11,0.448 11,0.992 L11,8.496 C11,9.056 10.552,9.504 9.992,9.504 L2.488,9.504 C2.216,9.504 1.992,9.728 1.992,10 L1.992,10.496 C1.992,10.784 2.216,10.992 2.488,10.992 L9.992,10.992 L9.992,10.256 C10.36,10.256 10.712,10.128 11,9.936 L11,10.992 C11,11.552 10.552,12 9.992,12 L1.992,12 Z M5,4.496 L9,4.496 L9,2.496 L5,2.496 L5,4.496 Z"></path>
            </g>
        </g>
    </g>
</svg>